<svg xmlns="http://www.w3.org/2000/svg" width="1647.984" height="264.29" viewBox="0 0 1647.984 264.29">
    <path id="Path_71" data-name="Path 71" d="M131.4-78.052H93.613l6.175-28.158h37.791ZM114.855,0h45.2l7.163-34.086h38.038V-78.052H176.605l6.175-28.158h38.779v-43.966H192.166l6.916-32.6h-45.2l-6.916,32.6H109.174l6.916-32.6H71.136l-6.916,32.6H20.007v43.966H54.834L48.659-78.052H3.705v43.966H39.273L32.11,0H77.064l7.163-34.086h37.791ZM275.9,0h59.527l24.453-106.7L383.838,0h59.527L486.1-174.135H433.732L413.478-56.069,386.8-174.135H333.7L306.28-55.081,286.026-174.135H233.662ZM506.6,0h48.412V-74.347c0-16.055,8.892-25.441,23.218-25.441,13.832,0,22.724,9.386,22.724,25.441V0h48.412V-80.769c0-36.309-20.007-59.033-51.623-59.033-20.007,0-34.58,9.139-42.731,21V-182.78H506.6ZM668.135-69.407c0,44.213,26.182,71.136,59.033,71.136,19.513,0,33.592-8.645,40.755-21V0h48.412V-138.567H767.923V-119.3c-7.163-12.35-20.995-21-40.755-21C694.317-140.3,668.135-113.62,668.135-69.407Zm99.788,0c0,18.772-11.609,28.9-25.194,28.9-13.832,0-25.194-10.374-25.194-28.9,0-18.772,11.362-28.652,25.194-28.652C756.314-98.059,767.923-87.932,767.923-69.407Zm83.733,16.8C851.656-12.844,874.133,0,904.761,0h20.995V-41.249H911.677c-8.151,0-11.362-3.211-11.362-10.621V-98.306h25.194v-40.261H900.315v-33.592H851.656v33.592H834.613v40.261h17.043Zm96.33-89.167h32.6l2.964-56.316H944.528Zm176.6,101.023c-.247-52.611-74.1-36.8-74.1-56.563,0-5.187,4.2-8.4,12.1-8.4,10.374,0,16.549,5.187,18.031,13.832h43.719c-3.211-27.417-22.971-48.412-60.762-48.412-37.544,0-57.551,20.007-57.551,44.213,0,50.882,73.606,34.333,73.606,54.587,0,4.94-4.693,8.892-12.844,8.892-10.127,0-17.784-4.94-19.019-14.079h-46.93c1.976,27.664,27.664,48.412,66.2,48.412C1102.855,1.729,1124.591-16.549,1124.591-40.755Zm70.148-32.357c0,49.647,31.616,74.841,73.606,74.841,41.743,0,76.323-25.194,76.323-74.841V-174.135h-48.412V-73.112c0,18.031-8.645,29.393-26.923,29.393S1242.9-55.081,1242.9-73.112V-174.135h-48.165ZM1419.756-119.3v-19.266h-48.412V66.2h48.412V-19.266c7.41,12.1,20.995,21,40.508,21,33.1,0,59.033-26.923,59.033-71.136s-25.935-70.889-59.033-70.889C1441-140.3,1426.919-131.651,1419.756-119.3Zm50.388,49.894c0,18.525-11.609,28.9-25.194,28.9s-25.194-10.127-25.194-28.9c0-18.525,11.609-28.652,25.194-28.652S1470.144-88.179,1470.144-69.407Zm61.009-62.985h45.695c0-8.645,4.446-15.067,14.079-15.067,7.9,0,13.091,4.94,13.338,13.585.494,14.326-13.585,18.278-34.58,18.278H1551.9l1.482,49.153h42.731l1.235-18.031c31.863-.494,54.34-18.525,54.34-49.153,0-35.321-24.947-53.352-59.527-53.352C1550.419-186.979,1530.165-162.032,1531.153-132.392Zm72.124,109.421c0-14.079-11.115-25.194-28.158-25.194-17.29,0-28.405,11.115-28.405,25.194s11.115,24.947,28.405,24.947C1592.162,1.976,1603.277-8.892,1603.277-22.971Z" transform="translate(-3.705 198.094)" fill="#fff" />
</svg>
  