<svg xmlns="http://www.w3.org/2000/svg" width="143.059" height="159.965" viewBox="0 0 143.059 159.965">
    <g id="Group_17" data-name="Group 17" transform="translate(-46.737 -9.541)">
        <path id="Path_21" data-name="Path 21" d="M881.384,669.376s-5.367,1.666-6.18.222a4.39,4.39,0,0,1-.344-1.761,24.136,24.136,0,0,1,6.32-.284C881.278,668.584,881.384,669.376,881.384,669.376Z" transform="translate(-691.688 -529.043)" opacity="0.1" />
        <path id="Path_32" data-name="Path 32" d="M889.03,800.2c-.646.024-4.319,0-4.319,0a1.985,1.985,0,0,1-.151-.178C885.5,799.706,887.529,799.226,889.03,800.2Z" transform="translate(-699.234 -631.882)" opacity="0.1" />
        <path id="Path_34" data-name="Path 34" d="M872.508,509.11c-.566,5.432-.38,16.211-.262,21-.844.5-1.668.975-2.374,1.377a4.406,4.406,0,0,1-1.854.509C867.782,530.546,871.042,515.674,872.508,509.11Z" transform="translate(-686.356 -405.884)" opacity="0.1" />
        <path id="Path_35" data-name="Path 35" d="M888.973,495.23c-.016.078-.284,1.259-.693,3.082A7.865,7.865,0,0,1,888.973,495.23Z" transform="translate(-702.128 -395.087)" opacity="0.1" />
        <path id="Path_47" data-name="Path 47" d="M886.554,387.3s-3.125.2-3.144.644S886.554,387.3,886.554,387.3Z" transform="translate(-698.34 -311.125)" opacity="0.1" />
        <path id="Path_50" data-name="Path 50" d="M875.247,387.315h0l-.286.444-.731-.389.384-.591A1.61,1.61,0,0,1,875.247,387.315Z" transform="translate(-691.198 -310.72)" opacity="0.1" />
        <circle id="Ellipse_6" data-name="Ellipse 6" cx="68.508" cy="68.508" r="68.508" transform="translate(46.736 32.49)" fill="#c84ab5" />
        <path id="Path_53" data-name="Path 53" d="M479,550.987c0,10.815-17,.924-35.229.924s-36.664,9.482-36.664-1.332c0-6.167,5.876-14.743,14.306-20.972h0c6.351-4.695,14.15-8.057,21.985-8.057,8.057,0,15.949,3.64,22.245,8.636C473.591,536.486,479,544.952,479,550.987Z" transform="translate(-327.811 -415.562)" fill="#444053" />
        <path id="Path_54" data-name="Path 54" d="M515.757,530.166c-9.689-1.459-27.212-3.238-44.227-.58,6.351-4.695,14.15-8.057,21.985-8.057C501.569,521.53,509.462,525.17,515.757,530.166Z" transform="translate(-377.926 -415.546)" fill="#f6f8fb" />
        <path id="Path_55" data-name="Path 55" d="M335.4,281.31s-20.637,13.193-20.468,33.83S335.4,281.31,335.4,281.31Z" transform="translate(-256.106 -228.672)" opacity="0.05" />
        <path id="Path_56" data-name="Path 56" d="M818.95,113.435s-18.7-1.126-16.493,11.976a3.185,3.185,0,0,0,1.661,3.367s.033-.97,1.917-.642a8.66,8.66,0,0,0,2.032.1,4.219,4.219,0,0,0,2.483-1.026h0s5.256-2.17,7.3-10.761c0,0,1.512-1.874,1.452-2.354l-3.156,1.346a5.639,5.639,0,0,1,.222,4.168s-.1-4.084-.708-4c-.122.02-1.639.788-1.639.788s1.854,3.966.444,6.846c0,0,.531-4.886-1.035-6.56l-2.221,1.3s2.167,4.095.7,7.437c0,0,.378-5.125-1.164-7.122l-2.014,1.57s2.036,4.037.795,6.809c0,0-.162-5.967-1.23-6.418a12.32,12.32,0,0,0-2.03,2.192s1.395,2.929.531,4.475c0,0-.531-3.975-.966-4a13.232,13.232,0,0,0-1.939,4.441,9.6,9.6,0,0,1,1.512-4.692,5.268,5.268,0,0,0-2.685,1.392s.273-1.863,3.109-2.025a12.144,12.144,0,0,1,1.839-2.119,11.521,11.521,0,0,0-4.548.524s1.51-1.757,5.065-.959l2-1.621s-3.726-.511-5.307.053c0,0,1.819-1.554,5.843-.422l2.165-1.295a19.853,19.853,0,0,0-5.072-.444s2-1.077,5.7.091l1.555-.7s-2.33-.457-3.011-.529-.717-.262-.717-.262a8.072,8.072,0,0,1,4.381.509S819.005,113.642,818.95,113.435Z" transform="translate(-635.223 -98.058)" fill="#c84ab5" />
        <path id="Path_57" data-name="Path 57" d="M764.612,87.251s-8.439-.511-7.453,5.41a1.444,1.444,0,0,0,.751,1.521s.013-.444.866-.289a4.01,4.01,0,0,0,.917.044,1.93,1.93,0,0,0,1.124-.464h0s2.374-.982,3.3-4.863c0,0,.684-.846.666-1.064l-1.426.608a2.55,2.55,0,0,1,.1,1.883s-.047-1.845-.32-1.8c-.055,0-.742.355-.742.355a4.21,4.21,0,0,1,.206,3.093s.24-2.207-.466-2.965l-1,.586a4.437,4.437,0,0,1,.315,3.362s.169-2.316-.526-3.218l-.911.708s.919,1.823.36,3.076c0,0-.073-2.7-.557-2.9a5.569,5.569,0,0,0-.917.99s.631,1.332.24,2.023c0,0-.24-1.8-.444-1.8a5.956,5.956,0,0,0-.875,2,4.326,4.326,0,0,1,.682-2.121,2.378,2.378,0,0,0-1.212.628s.122-.842,1.408-.915a5.54,5.54,0,0,1,.831-.957,5.207,5.207,0,0,0-2.054.238,2.32,2.32,0,0,1,2.289-.444l.888-.731a7.712,7.712,0,0,0-2.4.022,2.916,2.916,0,0,1,2.64-.189l.977-.586a8.886,8.886,0,0,0-2.292-.2,3.515,3.515,0,0,1,2.578.042l.7-.315s-1.053-.207-1.359-.238-.326-.118-.326-.118a3.64,3.64,0,0,1,1.976.222A8.944,8.944,0,0,0,764.612,87.251Z" transform="translate(-600.063 -77.699)" fill="#c84ab5" />
        <path id="Path_69" data-name="Path 69" d="M403.18,443.642c1.3-.073,7.439-.535,11.337-2.758a4.417,4.417,0,0,1,2.059-.606c1.239-.036,2.665.482,1.752,3.378-1.479,4.737-10.066,10.066-15.4,9.771a17.661,17.661,0,0,1-15.221-9.611,4.442,4.442,0,0,1-.548-2.285c.047-1.466.58-3.3,3.331-1.255,3.717,2.765,10.77,3.289,12.185,3.367A4.682,4.682,0,0,0,403.18,443.642Z" transform="translate(-312.292 -351.627)" fill="#444053" />
        <path id="Path_70" data-name="Path 70" d="M625.18,443.642c1.3-.073,7.439-.535,11.337-2.758a4.417,4.417,0,0,1,2.059-.606c1.239-.036,2.665.482,1.752,3.378-1.479,4.737-10.066,10.066-15.4,9.771a17.661,17.661,0,0,1-15.221-9.611,4.441,4.441,0,0,1-.548-2.285c.047-1.466.58-3.3,3.331-1.255,3.717,2.765,10.77,3.289,12.185,3.367A4.681,4.681,0,0,0,625.18,443.642Z" transform="translate(-484.992 -351.627)" fill="#444053" />
    </g>
</svg>
  